<svg id="Layer_1" enable-background="new 0 0 512 512" fill="#12424d" height="512" viewBox="0 0 512 512" width="512" xmlns="http://www.w3.org/2000/svg"><path d="m489.526 267.871c15.122-21.264 22.474-42.618 22.474-65.283v-85.611c0-18.828-16.147-34.141-34.844-33.699v-49.141c0-18.824-15.314-34.137-34.137-34.137h-.15c-10.765 0-20.375 5.014-26.637 12.823-6.261-7.809-15.872-12.823-26.637-12.823h-.15c-10.765 0-20.375 5.014-26.637 12.823-6.261-7.809-15.871-12.823-26.636-12.823h-.15c-10.765 0-20.375 5.014-26.637 12.823-6.261-7.809-15.872-12.823-26.636-12.823h-.15c-18.776 0-34.052 15.313-34.052 34.137v54.763c-5.734-3.836-12.619-5.711-19.491-5.621v-49.142c-.001-18.824-15.315-34.137-34.138-34.137h-.15c-10.765 0-20.375 5.014-26.637 12.823-6.261-7.809-15.872-12.823-26.637-12.823h-.15c-10.765 0-20.375 5.014-26.636 12.823-6.262-7.809-15.872-12.823-26.637-12.823h-.15c-10.765 0-20.376 5.014-26.637 12.823-6.261-7.809-15.872-12.823-26.637-12.823h-.15c-18.823 0-34.137 15.313-34.137 34.137v54.081c-.232.723-.36 1.493-.36 2.293v112.077c0 22.665 7.352 44.019 22.474 65.283 8.237 11.581 18.649 22.876 19.677 37.736-10.893 2.465-19.053 12.218-19.053 23.856 0 6.54 2.586 12.484 6.783 16.876-4.197 4.394-6.783 10.341-6.783 16.887 0 6.54 2.586 12.484 6.783 16.876-4.197 4.394-6.783 10.341-6.783 16.887 0 6.54 2.586 12.484 6.783 16.876-4.197 4.394-6.783 10.34-6.783 16.887 0 11.788 8.384 21.653 19.501 23.948v49.8c0 4.142 3.358 7.5 7.5 7.5s7.5-3.358 7.5-7.5v-49.296h150.425v49.296c0 4.142 3.358 7.5 7.5 7.5s7.5-3.358 7.5-7.5v-49.958c10.776-2.551 18.821-12.247 18.821-23.802 0-6.54-2.586-12.484-6.783-16.876 4.197-4.394 6.783-10.341 6.783-16.887 0-6.54-2.586-12.484-6.783-16.876 4.197-4.394 6.783-10.34 6.783-16.887 0-6.54-2.586-12.484-6.783-16.876 4.197-4.394 6.783-10.341 6.783-16.887 0-11.99-8.677-21.984-20.08-24.052 1.096-14.728 11.484-26.034 19.659-37.528 6.179-8.689 11.02-17.453 14.593-26.375 3.56 8.938 8.389 17.702 14.558 26.375 8.236 11.581 18.649 22.876 19.678 37.736-10.893 2.465-19.053 12.218-19.053 23.856 0 6.54 2.586 12.484 6.783 16.876-4.197 4.394-6.783 10.341-6.783 16.887 0 6.54 2.586 12.484 6.783 16.876-4.197 4.394-6.783 10.341-6.783 16.887 0 6.54 2.586 12.484 6.783 16.876-4.197 4.394-6.783 10.341-6.783 16.887 0 11.787 8.384 21.653 19.502 23.947v49.801c0 4.142 3.358 7.5 7.5 7.5s7.5-3.358 7.5-7.5v-49.297h150.424v49.297c0 4.142 3.358 7.5 7.5 7.5s7.5-3.358 7.5-7.5v-49.958c10.776-2.551 18.821-12.247 18.821-23.802 0-6.54-2.586-12.484-6.783-16.876 4.197-4.394 6.783-10.341 6.783-16.887 0-6.54-2.586-12.484-6.783-16.876 4.197-4.394 6.783-10.34 6.783-16.887 0-6.54-2.586-12.484-6.783-16.876 4.197-4.394 6.783-10.341 6.783-16.887 0-11.99-8.677-21.984-20.079-24.052 1.095-14.728 11.484-26.035 19.658-37.528zm-46.657-252.871h.15c10.552 0 19.137 8.584 19.137 19.137v49.142h-38.424v-49.142c0-10.553 8.584-19.137 19.137-19.137zm-53.424 0h.15c10.552 0 19.137 8.584 19.137 19.137v49.142h-19.687c-6.925 0-13.368 2.084-18.736 5.651v-54.793c0-10.553 8.584-19.137 19.136-19.137zm-53.424 0h.15c10.552 0 19.137 8.584 19.137 19.137v78.821c0 10.552-8.584 19.137-19.137 19.137h-.15c-10.552 0-19.137-8.584-19.137-19.137v-78.821c.001-10.553 8.585-19.137 19.137-19.137zm-72.475 19.137c0-10.552 8.547-19.137 19.052-19.137h.15c10.552 0 19.136 8.584 19.136 19.137v78.821c0 10.552-8.584 19.137-19.136 19.137h-.15c-10.505 0-19.052-8.584-19.052-19.137v-22.447zm-68.778-19.137h.15c10.552 0 19.137 8.584 19.137 19.137v49.142h-38.424v-49.142c0-10.553 8.584-19.137 19.137-19.137zm-53.424 0h.15c10.552 0 19.137 8.584 19.137 19.137v49.142h-19.687c-6.925 0-13.368 2.084-18.736 5.651v-54.793c0-10.553 8.584-19.137 19.136-19.137zm-125.984 19.137c0-10.553 8.585-19.137 19.137-19.137h.15c10.552 0 19.136 8.584 19.136 19.137v20.95c0 9.385 15 9.813 15 0v-20.95c.001-10.553 8.585-19.137 19.137-19.137h.15c10.552 0 19.137 8.584 19.137 19.137v78.821c0 10.552-8.584 19.137-19.137 19.137h-.15c-10.552 0-19.137-8.584-19.137-19.137v-18.046c0-9.385-15-9.813-15 0v18.045c0 10.552-8.584 19.137-19.136 19.137h-.15c-10.552 0-19.137-8.584-19.137-19.137zm32.19 319.778h169.845c12.185 0 12.188 18.611 0 18.611h-169.845c-12.185-.001-12.188-18.611 0-18.611zm179.296 43.074c0 5.318-4.324 9.299-9.451 9.299h-169.845c-12.185 0-12.188-18.611 0-18.611h169.845c5.135 0 9.451 3.991 9.451 9.312zm-9.451 43.215h-169.845c-12.113 0-12.267-18.763 0-18.763h169.845c12.264-.001 12.115 18.763 0 18.763zm9.451-110.741c0 5.318-4.324 9.299-9.451 9.299h-169.845c-12.264 0-12.116-18.763 0-18.763h169.845c5.211.001 9.451 4.24 9.451 9.464zm2.355-70.285c-10.115 14.221-21.278 27.6-22.442 45.822h-149.619c-1.162-18.186-12.343-31.624-22.442-45.822-13.255-18.637-19.698-37.148-19.698-56.59v-61.634c5.532 3.864 12.252 6.14 19.497 6.14h.15c10.765 0 20.375-5.014 26.636-12.823 6.261 7.809 15.872 12.823 26.637 12.823h.15c9.888 0 18.802-4.229 25.042-10.969 6.115 8.784 16.307 14.552 27.831 14.552h56.973v13.071c-13.498.656-41.389 4.557-62.515 24.471-17.377 16.381-26.188 39.74-26.188 69.428 0 9.385 15 9.813 15 0 0-25.34 7.197-44.999 21.39-58.431 23.511-22.248 59.029-20.559 59.37-20.54 4.251.247 7.942-3.226 7.942-7.487v-28.013c0-4.142-3.358-7.5-7.5-7.5h-64.473c-10.393 0-18.847-8.388-18.847-18.699s8.455-18.699 18.847-18.699h89.108c10.371 0 18.494 8.214 18.494 18.699v85.611c.002 19.776-6.326 38.287-19.343 56.59zm66.45 94.737h169.845c12.185 0 12.188 18.611 0 18.611h-169.845c-12.185-.001-12.187-18.611 0-18.611zm169.845 86.288h-169.845c-12.113 0-12.267-18.763 0-18.763h105.98c10.395 0 9.43-16.647-1.084-15.152h-104.896c-12.185 0-12.188-18.611 0-18.611h169.845c12.185 0 12.188 18.611 0 18.611h-22.894c-10.045-1.331-11.821 15.152-.987 15.152h23.882c12.263 0 12.115 18.763-.001 18.763zm9.451-110.74c0 5.318-4.324 9.299-9.451 9.299h-169.845c-12.264 0-12.116-18.763 0-18.763h169.845c5.212.001 9.451 4.24 9.451 9.464zm-2.275-63.925c-8.582 11.648-16.743 22.731-17.812 39.462h-149.619c-1.162-18.187-12.344-31.624-22.442-45.822-12.955-18.217-19.253-36.727-19.253-56.589v-61.351c5.441 3.696 11.999 5.857 19.052 5.857h.15c10.765 0 20.375-5.014 26.636-12.823 6.261 7.809 15.872 12.823 26.637 12.823h.15c9.888 0 18.802-4.229 25.042-10.969 6.115 8.784 16.307 14.552 27.831 14.552h56.973v13.071c-13.498.656-41.389 4.557-62.514 24.471-17.377 16.381-26.188 39.74-26.188 69.428 0 9.385 15 9.813 15 0 0-25.34 7.197-45 21.39-58.431 23.51-22.247 59.03-20.558 59.37-20.54 4.251.248 7.942-3.226 7.942-7.487v-28.013c0-4.142-3.358-7.5-7.5-7.5h-64.473c-10.393 0-18.847-8.388-18.847-18.699s8.455-18.699 18.847-18.699h89.108c10.393 0 18.847 8.389 18.847 18.699v85.611c0 19.441-6.443 37.952-19.698 56.589-1.56 2.195-3.12 4.312-4.629 6.36z"/></svg>