<svg id="Layer_1_1_" fill="#12424d" enable-background="new 0 0 64 64" height="512" viewBox="0 0 64 64" width="512" xmlns="http://www.w3.org/2000/svg"><path d="m61 57h-4.02v-2.343c0-3.774-1.417-7.331-4-10.063l-.001-3.774.85-.169c2.379-.477 4.742-2.683 5.38-5.022l1.213-4.447c.21-.771.104-1.574-.3-2.264-.404-.689-1.053-1.176-1.828-1.369l-.184-.046c-1.574-.398-3.179.567-3.572 2.144-.64 2.562-1.062 4.202-3.291 4.925.456-.754.734-1.627.734-2.57 0-2.757-2.243-5-5-5s-5 2.243-5 5c0 .939.276 1.808.728 2.56-2.201-.728-2.622-2.365-3.259-4.915-.394-1.575-1.999-2.542-3.571-2.143l-.184.046c-.775.193-1.424.68-1.828 1.369-.403.689-.51 1.493-.3 2.264l1.212 4.448c.639 2.34 3.003 4.546 5.382 5.021l.848.169v3.774c-2.583 2.731-4 6.288-4 10.063v2.342h-11.009v-.343c0-3.775-1.417-7.332-4-10.063v-4.811c3.072-.901 5.452-3.306 6.307-6.439l1.135-4.163c.21-.771.104-1.574-.3-2.264-.404-.689-1.053-1.176-1.828-1.369l-.183-.046c-1.574-.398-3.178.566-3.572 2.144-.641 2.562-1.063 4.202-3.292 4.925.455-.754.733-1.628.733-2.571 0-2.757-2.243-5-5-5s-5 2.243-5 5c0 1.615.783 3.04 1.975 3.954l-.803.267c-1.831.61-3.392 1.763-4.512 3.332l-2.307 3.229c-.468.655-.646 1.451-.5 2.243.145.792.594 1.474 1.264 1.921 1.163.775 2.727.62 3.717-.368l2.166-2.164v3.35l-4.618 9.236h-4.382c-.553 0-1 .447-1 1v3c0 .553.447 1 1 1h58c.553 0 1-.447 1-1v-3c0-.553-.447-1-1-1zm-14.02-28c1.654 0 3 1.346 3 3s-1.346 3-3 3-3-1.346-3-3 1.346-3 3-3zm-7.972 25.657c0-3.381 1.316-6.56 3.707-8.95.188-.188.293-.441.293-.707v-4.181c0-.949-.676-1.773-1.608-1.961l-.848-.169c-1.643-.329-3.402-1.972-3.844-3.587l-1.212-4.447c-.067-.248-.033-.507.097-.728.129-.222.338-.378.586-.44l.185-.046c.508-.121 1.021.184 1.146.689.922 3.686 1.718 6.87 8.798 6.87h1.372c7.082 0 7.878-3.184 8.798-6.869.126-.506.637-.811 1.148-.689l.184.046c.248.063.457.219.586.44.13.221.164.479.097.728l-1.213 4.447c-.433 1.587-2.229 3.264-3.842 3.587l-.85.169c-.932.187-1.607 1.012-1.607 1.961v4.18c0 .266.105.52.293.707 2.391 2.392 3.707 5.57 3.707 8.95v2.343h-2.242l-1.526-5.434c-.245-1.467-1.535-2.566-3.03-2.566h-2.378c-1.495 0-2.784 1.099-3.029 2.566l-1.526 5.434h-2.242zm11.653 2.343h-7.334l1.389-4.95c.012-.043.021-.086.027-.129.075-.525.531-.921 1.062-.921h2.378c.53 0 .987.396 1.062.921.007.043.016.086.027.129zm-34.661-28c1.654 0 3 1.346 3 3s-1.346 3-3 3-3-1.346-3-3 1.346-3 3-3zm-2.105 19.447c.069-.138.105-.292.105-.447v-6c0-.404-.243-.77-.617-.924-.374-.156-.803-.069-1.09.217l-3.872 3.872c-.318.319-.82.368-1.193.118-.215-.144-.359-.363-.406-.617-.047-.255.011-.511.16-.721l2.307-3.229c.874-1.223 2.09-2.121 3.518-2.598l3.355-1.118h.538c7.08 0 7.876-3.184 8.798-6.869.127-.506.639-.811 1.147-.689l.184.046c.248.063.457.219.586.44.13.221.164.479.097.728l-1.135 4.163c-.728 2.665-2.862 4.658-5.573 5.201-.468.093-.804.503-.804.98v6c0 .266.105.52.293.707 2.391 2.391 3.707 5.569 3.707 8.95v.343h-2.132l-.623-4.362c-.216-1.504-1.522-2.638-3.042-2.638-1.1 0-2.122.593-2.668 1.548l-3.115 5.452h-2.802zm5.952 8.553h-5.124l2.548-4.46c.19-.333.548-.54.932-.54.53 0 .986.396 1.061.921zm40.153 3h-56v-1h56z"/><path d="m31 2v2.069c-3.94.495-7 3.859-7 7.931 0 4.411 3.589 8 8 8s8-3.589 8-8c0-4.072-3.06-7.436-7-7.931v-2.069zm7 10c0 3.309-2.691 6-6 6s-6-2.691-6-6 2.691-6 6-6 6 2.691 6 6z"/><path d="m43 17h2v2h-2z"/><path d="m41 19h2v2h-2z"/><path d="m45 19h2v2h-2z"/><path d="m43 21h2v2h-2z"/><path d="m27.637 10.135-1.002 1.73c1.32.764 3.075 1.135 5.365 1.135s4.045-.371 5.365-1.135l-1.002-1.73c-.993.574-2.461.865-4.363.865s-3.37-.291-4.363-.865z"/><path d="m30.447 7.105-.895 1.789c.766.383 1.607.576 2.448.576s1.682-.192 2.447-.575l-.895-1.789c-.972.486-2.132.486-3.105-.001z"/><path d="m30.447 14.634-.895 1.789c.767.383 1.606.574 2.447.574s1.681-.191 2.447-.574l-.895-1.789c-.971.486-2.131.486-3.104 0z"/><path d="m19 4h2v2h-2z"/><path d="m17 6h2v2h-2z"/><path d="m21 6h2v2h-2z"/><path d="m19 8h2v2h-2z"/><path d="m58 9h2v2h-2z"/><path d="m56 11h2v2h-2z"/><path d="m60 11h2v2h-2z"/><path d="m58 13h2v2h-2z"/><path d="m4 21h2v2h-2z"/><path d="m2 23h2v2h-2z"/><path d="m6 23h2v2h-2z"/><path d="m4 25h2v2h-2z"/></svg>