<?xml version="1.0" encoding="iso-8859-1"?>
<!-- Generator: Adobe Illustrator 19.0.0, SVG Export Plug-In . SVG Version: 6.00 Build 0)  -->
<svg version="1.1" id="Capa_1" xmlns="http://www.w3.org/2000/svg" xmlns:xlink="http://www.w3.org/1999/xlink" x="0px" y="0px"
	 viewBox="0 0 512 512" fill="#12424d" style="enable-background:new 0 0 512 512;" xml:space="preserve">
<g>
	<g>
		<path d="M475.389,375.546c-1.406-1.406-3.314-2.196-5.303-2.196s-3.897,0.79-5.303,2.196l-0.584,0.584l-14.913-14.921
			c-0.736-0.731-1.339-1.602-1.772-2.54c-0.436-0.963-0.695-2-0.771-3.064c-0.685-9.931-4.942-19.281-11.989-26.328l-73.281-73.281
			l30.726-30.726l13.31,32.866c0.127,0.313,0.275,0.617,0.442,0.91c7.113,12.427,21.702,18.361,35.476,14.437
			c0.674-0.192,1.318-0.479,1.914-0.85c6.879-4.291,14.561-11.028,12.098-18.744c-3.909-12.304-7.29-41.57-9.519-82.398
			c-0.454-8.515,2.075-16.979,7.14-23.86c1.09-1.495,2.315-2.93,3.624-4.246l7.514-7.514l0.587,0.587
			c1.406,1.406,3.314,2.196,5.303,2.196s3.897-0.79,5.303-2.196l34.412-34.412c2.929-2.93,2.929-7.678,0-10.607L420.565,2.198
			c-1.406-1.406-3.314-2.196-5.303-2.196s-3.897,0.79-5.303,2.196L375.547,36.61c-2.929,2.93-2.929,7.678,0,10.607l0.583,0.583
			l-14.903,14.895c-0.75,0.75-1.613,1.349-2.614,1.801c-0.931,0.429-1.949,0.686-3.016,0.762
			c-9.938,0.695-19.285,4.953-26.322,11.99l-9.11,9.12c-2.927,2.931-2.925,7.68,0.006,10.607c1.464,1.462,3.382,2.193,5.3,2.193
			c1.921,0,3.842-0.733,5.306-2.199l9.107-9.117c4.478-4.479,10.43-7.188,16.771-7.633c2.886-0.205,5.656-0.912,8.184-2.076
			c2.607-1.179,4.961-2.808,6.993-4.84l14.905-14.897l66.855,66.855l-7.531,7.531c-1.86,1.871-3.582,3.889-5.1,5.971
			c-7.099,9.645-10.657,21.55-10.018,33.534c1.552,28.435,4.44,65.396,9.485,83.707c-0.979,0.965-2.567,2.247-4.115,3.303
			c-6.668,1.454-13.532-1.457-17.108-7.318l-17.352-42.846c-0.944-2.331-2.995-4.034-5.46-4.535
			c-2.465-0.499-5.017,0.27-6.795,2.048l-62.529,62.529c-1.045-2.156-2.435-4.18-4.214-5.959l-2.931-2.932
			c-1.753-1.752-3.762-3.176-5.941-4.242l37.191-37.191c2.929-2.93,2.929-7.678,0-10.607c-2.929-2.928-7.678-2.928-10.606,0
			l-30.362,30.362c-1.11-2.374-2.613-4.572-4.522-6.48l-2.101-2.102c-1.935-1.935-4.14-3.435-6.488-4.527l38.691-38.691
			c2.929-2.93,2.929-7.678,0-10.607c-2.929-2.928-7.678-2.928-10.606,0l-35.331,35.331c-1.113-2.449-2.67-4.746-4.681-6.761
			l-1.684-1.674c-1.985-1.984-4.276-3.551-6.744-4.675l27.001-27.001c2.929-2.93,2.929-7.678,0-10.607
			c-2.928-2.927-7.677-2.929-10.606,0l-22.751,22.751c-1.157-2.601-2.791-4.999-4.872-7.079l-1.179-1.169
			c-2.101-2.101-4.514-3.696-7.082-4.83l52.672-52.673c2.929-2.93,2.929-7.678,0-10.607c-2.929-2.928-7.678-2.928-10.606,0
			l-43.316,43.317l-30.724-30.731l32.859-13.311c0.312-0.126,0.614-0.273,0.907-0.44c12.431-7.106,18.369-21.695,14.44-35.477
			c-0.192-0.675-0.479-1.319-0.85-1.914c-4.292-6.879-11.03-14.569-18.744-12.098c-12.342,3.921-41.607,7.298-82.404,9.508
			c-10.451,0.577-20.693-3.354-28.09-10.751l-7.519-7.525l0.579-0.579c2.929-2.93,2.929-7.678,0-10.607L102.044,2.196
			C100.637,0.79,98.73,0,96.74,0s-3.897,0.79-5.303,2.196L61.93,31.703c-2.929,2.93-2.929,7.678,0,10.607
			c2.929,2.928,7.678,2.928,10.606,0L96.74,18.106l23.805,23.806l-0.531,0.531c-0.015,0.014-0.031,0.026-0.045,0.041
			c-0.015,0.015-0.027,0.031-0.042,0.046l-77.374,77.374c-0.018,0.018-0.038,0.032-0.056,0.05s-0.033,0.038-0.051,0.056
			l-0.533,0.533L18.109,96.738l33.535-33.534c2.929-2.93,2.929-7.678,0-10.607c-2.929-2.928-7.678-2.928-10.606,0L2.199,91.435
			c-1.407,1.407-2.197,3.314-2.197,5.304s0.79,3.896,2.197,5.304l34.412,34.412c1.406,1.406,3.314,2.196,5.303,2.196
			s3.897-0.79,5.303-2.196l0.584-0.584l14.905,14.912c1.5,1.494,2.406,3.487,2.552,5.613c0.341,4.945,1.559,9.743,3.618,14.256
			c2.059,4.515,4.875,8.576,8.371,12.072l73.278,73.278l-30.724,30.721l-13.31-32.858c-0.126-0.313-0.273-0.615-0.44-0.907
			c-7.107-12.431-21.697-18.368-35.478-14.439c-0.674,0.192-1.318,0.479-1.914,0.85c-6.879,4.291-14.561,11.028-12.098,18.743
			c3.921,12.341,7.298,41.606,9.509,82.404c0.564,10.454-3.355,20.693-10.752,28.09l-7.524,7.519l-0.579-0.579
			c-2.929-2.928-7.678-2.928-10.606,0l-34.412,34.41c-2.929,2.93-2.929,7.678,0,10.607l89.239,89.239
			c1.464,1.464,3.384,2.196,5.303,2.196s3.839-0.732,5.303-2.196l34.412-34.412c2.929-2.93,2.929-7.678,0-10.607l-0.584-0.584
			l14.913-14.905c1.494-1.499,3.486-2.405,5.63-2.553c3.079-0.22,6.11-0.775,8.973-1.642c2.914-0.865,5.741-2.066,8.402-3.568
			c3.607-2.037,4.88-6.612,2.843-10.219c-2.036-3.605-6.611-4.878-10.218-2.844c-1.681,0.949-3.463,1.707-5.333,2.263
			c-1.834,0.555-3.763,0.907-5.714,1.046c-5.749,0.396-11.15,2.856-15.196,6.918l-14.905,14.897L58.401,386.73l7.522-7.517
			c10.406-10.406,15.919-24.806,15.126-39.509c-1.54-28.412-4.418-65.359-9.475-83.71c0.978-0.965,2.567-2.247,4.115-3.303
			c6.671-1.454,13.535,1.456,17.107,7.316l17.353,42.838c0.944,2.332,2.994,4.034,5.459,4.535c2.467,0.499,5.017-0.269,6.795-2.047
			l77.306-77.3c0.014-0.014,0.03-0.026,0.044-0.04l37.735-37.735c0.034-0.033,0.071-0.061,0.105-0.095s0.062-0.071,0.095-0.105
			l4.131-4.131c3.285-3.277,8.625-3.278,11.929,0.027l1.179,1.169c1.592,1.592,2.468,3.707,2.468,5.956
			c0,2.219-0.857,4.306-2.409,5.892l-28.117,28.116c-0.007,0.007-0.014,0.013-0.021,0.02c-0.002,0.002-0.004,0.005-0.007,0.008
			l-13.982,13.982c-0.021,0.021-0.039,0.045-0.06,0.066l-51.974,51.974c-2.929,2.93-2.929,7.678,0,10.607
			c1.464,1.464,3.384,2.196,5.303,2.196s3.839-0.732,5.303-2.196l90.029-90.029c0.81-0.81,1.756-1.426,2.81-1.83
			c2.976-1.14,6.353-0.421,8.62,1.846l1.679,1.669c3.106,3.111,3.144,8.138,0.133,11.286l-44.668,44.669
			c-0.02,0.02-0.037,0.043-0.057,0.063l-2.965,2.965c-0.024,0.024-0.049,0.048-0.073,0.073l-50.727,50.727
			c-2.929,2.93-2.929,7.678,0,10.607c1.464,1.464,3.384,2.196,5.303,2.196s3.839-0.732,5.303-2.196l50.726-50.726
			c0.028-0.028,0.056-0.055,0.083-0.083l44.333-44.333c0.008-0.008,0.015-0.017,0.023-0.025c1.468-1.457,3.414-2.259,5.484-2.259
			c2.08,0,4.036,0.811,5.506,2.28l2.101,2.102c1.471,1.471,2.281,3.426,2.281,5.506c0,2.032-0.778,3.942-2.185,5.401l-44.634,44.634
			c-0.02,0.02-0.037,0.043-0.057,0.063l-42.221,42.221c-2.929,2.93-2.929,7.678,0,10.607c1.464,1.464,3.384,2.196,5.303,2.196
			s3.839-0.732,5.303-2.196l80.246-80.246c0.01-0.01,0.021-0.018,0.03-0.027l0.015-0.016c1.704-1.692,4.126-2.419,6.517-1.938
			c1.375,0.27,2.634,0.945,3.641,1.953l2.931,2.932c2.761,2.761,2.8,7.286,0.086,10.088c-0.049,0.05-0.097,0.102-0.145,0.153
			L250.7,345.564c-0.001,0.001-0.002,0.001-0.003,0.002c-0.001,0.001-0.001,0.002-0.002,0.003l-64.118,64.118
			c-2.929,2.93-2.929,7.678,0,10.607c1.464,1.464,3.384,2.196,5.303,2.196s3.839-0.732,5.303-2.196L256,361.477l30.722,30.722
			l-32.858,13.31c-0.312,0.126-0.614,0.273-0.907,0.44c-12.431,7.106-18.369,21.695-14.44,35.477
			c0.192,0.675,0.479,1.319,0.85,1.914c4.292,6.878,11.028,14.563,18.744,12.098c12.342-3.921,41.607-7.298,82.404-9.508
			c10.456-0.564,20.694,3.355,28.09,10.751l7.519,7.525l-0.579,0.579c-2.929,2.93-2.929,7.678,0,10.607l34.412,34.412
			c1.406,1.406,3.314,2.196,5.303,2.196s3.897-0.79,5.303-2.196l89.238-89.238c2.929-2.93,2.929-7.678,0-10.607L475.389,375.546z
			 M392.09,42.548c-0.016-0.016-0.029-0.034-0.046-0.051c-0.016-0.016-0.035-0.03-0.051-0.046l-0.538-0.538l23.807-23.805
			l78.631,78.632l-23.806,23.806l-0.529-0.529c-0.019-0.02-0.035-0.041-0.055-0.061c-0.02-0.02-0.041-0.036-0.061-0.055
			L392.09,42.548z M119.91,469.451c0.016,0.016,0.029,0.034,0.046,0.051c0.016,0.016,0.035,0.03,0.051,0.046l0.539,0.539
			L96.74,493.893L18.107,415.26l23.806-23.806l0.523,0.523c0.018,0.018,0.032,0.038,0.05,0.055c0.018,0.018,0.038,0.033,0.056,0.051
			L119.91,469.451z M232.285,174.248l-13.422-13.422c-2.929-2.927-7.678-2.929-10.606,0c-2.929,2.93-2.929,7.678,0,10.607
			l13.421,13.421l-13.109,13.108l-21.745-21.746c-2.929-2.93-7.678-2.929-10.606-0.001c-2.929,2.929-2.929,7.678,0,10.606
			l21.745,21.746l-13.109,13.108l-13.42-13.421c-2.928-2.928-7.677-2.928-10.606,0c-2.929,2.93-2.929,7.678,0,10.607l13.419,13.42
			l-13.114,13.113l-73.28-73.278c-2.224-2.224-4.017-4.81-5.33-7.69c-1.311-2.87-2.084-5.919-2.301-9.06
			c-0.395-5.749-2.855-11.15-6.918-15.198l-14.897-14.904l66.862-66.863l7.517,7.523c10.407,10.407,24.803,15.914,39.509,15.125
			c28.411-1.54,65.358-4.417,83.71-9.475c0.965,0.979,2.247,2.566,3.303,4.114c1.453,6.674-1.458,13.535-7.317,17.107
			l-42.837,17.353c-2.331,0.944-4.034,2.994-4.534,5.459c-0.5,2.465,0.268,5.017,2.046,6.795l38.728,38.737L232.285,174.248z
			 M379.214,446.076c-10.407-10.406-24.805-15.907-39.509-15.125c-28.411,1.54-65.358,4.417-83.71,9.475
			c-0.965-0.979-2.247-2.566-3.303-4.114c-1.453-6.674,1.458-13.535,7.318-17.107l42.837-17.353
			c2.331-0.944,4.034-2.994,4.534-5.459s-0.268-5.017-2.047-6.796l-38.726-38.727l13.113-13.113l13.417,13.417
			c1.464,1.464,3.384,2.196,5.303,2.196s3.839-0.732,5.303-2.196c2.929-2.93,2.929-7.678,0-10.607l-13.416-13.417l13.108-13.108
			l21.742,21.742c1.464,1.464,3.384,2.196,5.303,2.196s3.839-0.732,5.303-2.196c2.929-2.93,2.929-7.678,0-10.607l-21.742-21.742
			l8.844-8.844c0.09-0.091,0.178-0.182,0.263-0.272l3.997-3.996l13.422,13.422c1.464,1.464,3.384,2.196,5.303,2.196
			s3.839-0.732,5.303-2.196c2.929-2.93,2.929-7.678,0-10.607l-13.421-13.422l13.113-13.113l73.282,73.282
			c4.485,4.485,7.195,10.435,7.632,16.771c0.204,2.855,0.9,5.613,2.088,8.24c1.205,2.617,2.835,4.957,4.828,6.937l14.897,14.904
			L386.731,453.6L379.214,446.076z M415.26,493.894l-23.806-23.806l0.531-0.531c0.015-0.014,0.031-0.026,0.045-0.041
			c0.015-0.015,0.027-0.031,0.042-0.046l77.374-77.374c0.018-0.018,0.038-0.032,0.056-0.05s0.033-0.038,0.051-0.056l0.533-0.533
			l23.806,23.806L415.26,493.894z"/>
	</g>
</g>
<g>
</g>
<g>
</g>
<g>
</g>
<g>
</g>
<g>
</g>
<g>
</g>
<g>
</g>
<g>
</g>
<g>
</g>
<g>
</g>
<g>
</g>
<g>
</g>
<g>
</g>
<g>
</g>
<g>
</g>
</svg>
