<?xml version="1.0" encoding="UTF-8"?>
<svg id="Camada_2" data-name="Camada 2" xmlns="http://www.w3.org/2000/svg" viewBox="0 0 221.08 155.12">
  <defs>
    <style>
      .cls-1 {
        fill: #fff;
      }
    </style>
  </defs>
  <g id="Camada_1-2" data-name="Camada 1">
    <path class="cls-1" d="m38.96,0C20.65,0,5.75,14.9,5.75,33.21s14.9,33.21,33.21,33.21,33.21-14.9,33.21-33.21S57.27,0,38.96,0m0,2c17.24,0,31.21,13.97,31.21,31.21s-13.97,31.21-31.21,31.21S7.75,50.45,7.75,33.21,21.72,2,38.96,2"/>
    <path class="cls-1" d="m78.19,66.95c-1.35,0-2.61.52-3.56,1.48l-25.5,25.5c-1.49,1.49-2.32,3.48-2.32,5.59v39.61c0,3.84,2.75,7.07,6.53,7.7l47.16,7.75c.42.07.85.11,1.28.11,4.29,0,7.79-3.5,7.79-7.8v-47.73c0-1.87-.73-3.64-2.05-4.96l-25.77-25.76c-.95-.95-2.21-1.48-3.56-1.48m0,2c.78,0,1.55.3,2.15.89l25.76,25.76c.94.94,1.47,2.22,1.47,3.55v47.73c0,3.25-2.65,5.8-5.79,5.8-.31,0-.63-.03-.95-.08l-47.16-7.75c-2.8-.46-4.86-2.88-4.86-5.72v-39.61c0-1.57.62-3.07,1.73-4.18l25.5-25.5c.59-.59,1.37-.89,2.15-.89"/>
    <path class="cls-1" d="m176.55,96.17h-62.51c-3.6,0-6.53,2.93-6.53,6.54v45.87c0,3.6,2.93,6.54,6.53,6.54.27,0,.53-.02.8-.05h.02s.01,0,.01,0l62.5-8.54c3.27-.41,5.73-3.19,5.73-6.48v-37.33c0-3.6-2.93-6.54-6.53-6.54m0,2c2.5,0,4.53,2.03,4.53,4.54v37.33c0,2.29-1.71,4.22-3.99,4.5l-62.51,8.54c-.19.02-.37.03-.56.03-2.46,0-4.53-2-4.53-4.54v-45.87c0-2.5,2.03-4.54,4.53-4.54h62.51Z"/>
    <path class="cls-1" d="m81.52,51.78c-2.93,0-5.68,1.14-7.75,3.21l-2.73,2.74-30.03,30.03c-1.05,1.05-1.62,2.44-1.62,3.92s.58,2.87,1.62,3.92l.73.73c1.05,1.05,2.44,1.63,3.93,1.63s2.88-.58,3.93-1.63l27.15-27.15c.39-.39.91-.6,1.46-.6s1.07.21,1.46.6l26.94,26.94c1.27,1.27,2.97,1.97,4.77,1.97h5.11s4.35-.01,4.35-.01h0s57.44,0,57.44,0c2.42,0,4.51-1.48,5.31-3.77.8-2.29.09-4.74-1.8-6.26l-35.14-28.05c-1.56-1.24-3.43-2.01-5.41-2.21l-58.6-5.95c-.37-.04-.74-.06-1.11-.06m0,2c.3,0,.6.02.91.05l58.6,5.95c1.6.16,3.11.78,4.36,1.78l35.14,28.05c2.68,2.14,1.17,6.46-2.26,6.46h-61.8,0s-5.1.02-5.1.02h0c-1.26,0-2.46-.5-3.35-1.39l-26.95-26.94c-.79-.79-1.83-1.19-2.87-1.19s-2.08.4-2.87,1.19l-27.14,27.15c-.69.7-1.6,1.04-2.51,1.04s-1.82-.35-2.51-1.04l-.73-.73c-1.38-1.38-1.38-3.62,0-5.01l30.03-30.03,2.74-2.74c1.69-1.69,3.97-2.62,6.33-2.62"/>
    <path class="cls-1" d="m48.9,113.32l-2.29.34c-5.76.85-11.12,3.24-15.55,6.94-2-.5-4.04-.76-6.08-.76-13.77,0-24.98,11.2-24.98,24.98v2h54.59l-3.82-3.48c-1.21-1.1-1.87-2.59-1.87-4.21v-25.81Zm-2,2.32v23.49c0,2.25.97,4.27,2.52,5.69H2c0-12.69,10.29-22.98,22.98-22.98,2.29,0,4.49.34,6.58.97,4.2-3.76,9.5-6.31,15.35-7.17"/>
    <path class="cls-1" d="m109.5,0c-15.72,0-31.22,4.12-44.83,11.91l-1.94,1.11,1.33,1.81c3.94,5.37,6.03,11.72,6.03,18.38,0,17.16-13.96,31.12-31.12,31.12-4.45,0-8.75-.93-12.8-2.77l-2.05-.93-.69,2.14c-2.86,8.93-4.31,18.22-4.31,27.61,0,10.36,1.75,20.54,5.2,30.24l.45,1.26,1.34.07c1.53.08,3.04.3,4.49.67l.99.25.78-.65c4.14-3.46,9.17-5.71,14.55-6.51h2v-2s-.01-14.21-.01-14.21c0-.42.06-.86.2-1.41l.83-3.35-3.32.95c-.38.11-.68.16-.95.16-.93,0-1.8-.36-2.45-1.01l-.73-.73c-.65-.65-1.01-1.52-1.01-2.44s.36-1.79,1.01-2.44l30.03-30.03,2.73-2.73c1.68-1.68,3.9-2.6,6.27-2.6.3,0,.6.02.9.05l58.6,5.95c1.58.16,3.07.77,4.32,1.76l35.14,28.05c1.21.97,1.64,2.47,1.13,3.93-.34.96-1.04,1.71-1.97,2.09l-3.27,1.34,2.83,2.11c1.15.86,1.81,2.15,1.81,3.55v15.75h1.98c2.05,1.02,3.98,2.29,5.74,3.77l.78.66.99-.25c.79-.2,1.61-.36,2.5-.48l1.2-.17.41-1.14c3.51-9.78,5.29-20.02,5.29-30.45,0-12.2-2.39-24.04-7.1-35.18-4.55-10.76-11.07-20.43-19.37-28.73-8.3-8.3-17.97-14.82-28.73-19.37-11.15-4.71-22.98-7.1-35.18-7.1m0,2c48.82,0,88.39,39.57,88.39,88.39,0,10.46-1.83,20.48-5.17,29.78-.91.13-1.82.3-2.72.52-1.89-1.58-3.95-2.93-6.15-4.03-.27-.14-.56-.2-.85-.2v-13.75c0-2.11-1.04-3.98-2.61-5.15,1.43-.58,2.56-1.74,3.1-3.28.79-2.25.09-4.67-1.77-6.16l-35.14-28.05c-1.54-1.23-3.4-1.99-5.36-2.19l-58.6-5.95c-.36-.04-.73-.06-1.1-.06-2.9,0-5.63,1.13-7.69,3.18l-2.73,2.73-30.03,30.03c-1.03,1.03-1.6,2.4-1.6,3.85s.57,2.83,1.6,3.86l.73.73c1.03,1.03,2.41,1.6,3.86,1.6.52,0,1.02-.1,1.5-.23-.15.61-.26,1.24-.26,1.89v14.21c-.09,0-.19,0-.28.02-5.76.85-11.12,3.25-15.54,6.95-1.61-.41-3.24-.65-4.88-.73-3.29-9.25-5.09-19.2-5.09-29.58,0-9.42,1.49-18.49,4.22-27,4.16,1.89,8.77,2.95,13.63,2.95,18.26,0,33.12-14.86,33.12-33.12,0-7.31-2.39-14.08-6.42-19.56,12.92-7.4,27.88-11.65,43.84-11.65"/>
    <path class="cls-1" d="m181,115.14v24.9c0,1.24-.54,2.44-1.49,3.29l-3.86,3.48h45.44v-2c0-13.77-11.2-24.98-24.97-24.98-2.04,0-4.08.25-6.08.76-1.89-1.57-3.94-2.92-6.14-4.01l-2.89-1.44Zm2,3.23c2.38,1.19,4.57,2.68,6.53,4.43,2.09-.62,4.29-.97,6.58-.97,12.69,0,22.97,10.29,22.97,22.98h-38.24c1.32-1.19,2.15-2.89,2.15-4.78v-21.66Z"/>
  </g>
</svg>