<svg xmlns="http://www.w3.org/2000/svg" viewBox="0 0 523.5 163.51"><defs><style>.cls-1{fill:#1a2441;}.cls-1,.cls-2{fill-rule:evenodd;}.cls-2{fill:#fff;}</style></defs><title>logo-compliance</title><g id="Camada_2" data-name="Camada 2"><g id="Camada_1-2" data-name="Camada 1"><path id="path4" class="cls-1" d="M81.59,0l4.8,4.77L91.84.64,96,6l5.93-3.41,3.46,5.81,6.3-2.64L114.4,12,121,10.11l1.91,6.5,6.76-1,1.08,6.69,6.83-.14.23,6.76,6.8.72L144,36.38,150.62,38l-1.46,6.61L155.57,47l-2.28,6.37,6.06,3.17-3.06,6,5.61,3.91L158.11,72l5.08,4.58-4.46,5.09,4.46,5.18-5.07,4.49,3.78,5.69-5.59,3.83,3,6.12-6,3.09,2.24,6.45-6.36,2.32,1.41,6.68-6.6,1.5.57,6.81-6.74.65-.29,6.83-6.77-.19-1.14,6.74-6.69-1-2,6.54-6.51-1.87-2.78,6.24-6.22-2.67-3.54,5.84-5.84-3.43-4.25,5.36-5.36-4.14-4.89,4.78-4.8-4.77-5.44,4.13-4.17-5.34-5.92,3.41-3.46-5.81-6.3,2.64-2.71-6.2-6.58,1.83-1.91-6.5-6.76,1-1.08-6.69-6.83.14-.23-6.76-6.8-.72.62-6.74-6.65-1.57L14,119l-6.4-2.39,2.27-6.37L3.84,107l3.06-6L1.29,97.07l3.78-5.6L0,86.89,4.46,81.8,0,76.62l5.06-4.49L1.29,66.44l5.58-3.83-3-6.12,6-3.09L7.62,47,14,44.63,12.57,38l6.6-1.5-.57-6.81L25.34,29l.29-6.83,6.76.19,1.15-6.74,6.69,1,2-6.54L48.71,12,51.5,5.74l6.22,2.67,3.54-5.84L67.1,6,71.35.64l5.36,4.14Z"/><path id="path6" class="cls-2" d="M81.59,15a66.6,66.6,0,0,1,49.54,22c-2.47.82-5,1.73-7.48,2.71a59.49,59.49,0,1,0,6.53,7.74l5.75-4.5A66.8,66.8,0,1,1,81.59,15Z"/><g id="Layer1000"><path id="path8" class="cls-1" d="M183.15,56.44v-30h13.74c3.39,0,5.7.66,6.93,2s1.85,3.75,1.85,7.33-.64,5.77-1.93,7-3.69,1.87-7.23,1.87l-1.32,0h-8.66V56.44Zm3.38-14.69h8c3.37,0,5.51-.34,6.46-1s1.42-2.29,1.42-4.78c0-2.91-.32-4.76-1-5.53s-2.15-1.16-4.54-1.16l-1.3,0h-9.1Zm23.19,14.69v-30H224c3.22,0,5.5.64,6.82,1.92s2,3.48,2,6.63q0,4.16-1.07,5.79c-.71,1.1-2.08,1.8-4.1,2.13v.06c3.18.24,4.77,2.17,4.77,5.81v7.71H229V49.51q0-5.28-4.56-5.28H213.1V56.44Zm3.38-15h9.81q3.85,0,5.27-1.18c.94-.79,1.4-2.26,1.4-4.43,0-2.72-.34-4.49-1-5.32s-2.18-1.23-4.46-1.23h-11Zm35.68-15.27q8.5,0,10.65,2.49c1.42,1.66,2.13,5.79,2.13,12.42q0,10.71-2.05,13.21t-10.72,2.51q-8.65,0-10.73-2.48T236,41.41V39.3l0-2.84q0-6,2.7-8.15t10.06-2.19Zm0,2.84q-7.12,0-8.33,1.58t-1.21,10.88q0,9.33,1.21,10.91c.8,1.06,3.58,1.58,8.33,1.58s7.55-.52,8.35-1.58,1.21-4.69,1.21-10.91v-2l0-2.84q0-5-1.67-6.32T248.76,29Zm27.37,12.52H289c.06.78.1,1.87.1,3.28q0,8.13-2,10.06T276.7,56.75q-7.95,0-10.22-2.27t-2.27-10.22l0-4.41,0-2.67q0-6.66,2.53-8.86t10.15-2.2q7.67,0,9.88,1.44c1.48,1,2.23,3.1,2.23,6.42v1.15h-3.32v-.75c0-2.46-.51-4-1.51-4.55S280.54,29,276.3,29q-5.87,0-7.34,1.4c-1,.93-1.47,3.25-1.47,7l-.06,4,0,4.31c0,3.79.54,6.11,1.63,7s4,1.29,8.76,1.29q5.43,0,6.72-1.23t1.29-6.5q0-.42-.18-1.86h-9.55Zm17.17,15v-30h14.31c3.22,0,5.5.64,6.82,1.92s2,3.48,2,6.63q0,4.16-1.07,5.79c-.71,1.1-2.08,1.8-4.1,2.13v.06c3.18.24,4.77,2.17,4.77,5.81v7.71h-3.38V49.51q0-5.28-4.56-5.28H296.68V56.44Zm3.38-15h9.81q3.86,0,5.27-1.18c.94-.79,1.4-2.26,1.4-4.43,0-2.72-.34-4.49-1-5.32s-2.18-1.23-4.46-1.23h-11Zm43.16,8.7h-15.2l-2.31,6.35h-3.59l11-30h4.75l11.22,30.05h-3.55Zm-1-2.57-6.66-18.35L325.6,47.52Zm42.89-21.13V56.44h-3.37V30.6l0-.9,0-.91h-.09l-.26.71c-.14.35-.22.58-.26.68l-.58,1.41L367,56.44h-3.4L353.31,31.88l-.6-1.39-.26-.7c-.08-.17-.16-.4-.26-.69h-.1l0,.81,0,.84V56.44h-3.38v-30h5.87l8,19.44L363.93,49l.63,1.57.62,1.56h.09l.62-1.56c.3-.75.51-1.27.61-1.57l1.3-3.12,8-19.46Zm24.15,23.7h-15.2l-2.31,6.35h-3.59l11-30h4.75l11.22,30.05h-3.54Zm-1-2.57-6.67-18.35-6.58,18.35Zm21.18,8.92v-30H440c4.31,0,7.21.95,8.73,2.84S451,34.75,451,40.11q0,9.77-2,13c-1.36,2.18-4.06,3.28-8.12,3.28Zm3.37-2.84h9.79q5.38,0,6.94-2.16c1-1.44,1.56-4.66,1.56-9.64q0-8.2-1.35-10.39c-.9-1.45-3.06-2.18-6.46-2.18H429.44ZM457.7,29.23V39.5h15.23v2.84H457.7V53.6h15.9v2.84H454.32v-30H473.6v2.84ZM200.22,85.29h8v.91c0,1,0,1.89-.11,2.77a24.9,24.9,0,0,1-.34,2.53,5,5,0,0,1-1,2.24,7.25,7.25,0,0,1-2.17,1.79,7.48,7.48,0,0,1-1.48.72,9.38,9.38,0,0,1-1.58.4l-.81.09-.81.09a7.81,7.81,0,0,0-.86,0,7.32,7.32,0,0,1-.81,0h-3.37a1.61,1.61,0,0,0-.39,0h-1.28a2.18,2.18,0,0,0-.43,0h-2.14a11.18,11.18,0,0,1-4.8-1.37,5.72,5.72,0,0,1-2.5-3,21,21,0,0,1-1.08-4.13,33.47,33.47,0,0,1-.4-4.72l-.05-4a23.49,23.49,0,0,1,.75-6.43,8.52,8.52,0,0,1,2.22-4,9.77,9.77,0,0,1,4.13-2.06,25.58,25.58,0,0,1,6.42-.7l2.47-.09a.53.53,0,0,0,.3.09h1a20,20,0,0,1,2.32.23,14,14,0,0,1,2.23.54,5.17,5.17,0,0,1,1.94,1.05A7.23,7.23,0,0,1,207,70.11a6.34,6.34,0,0,1,.52,1.12,8.94,8.94,0,0,1,.34,1.21l.09.62c0,.21.06.4.09.58s.05.42.07.63,0,.42,0,.63v.9a.39.39,0,0,0,0,.18v1.35h-8.1a6.62,6.62,0,0,0-.23-1.85,3.07,3.07,0,0,0-.63-1.21,2.79,2.79,0,0,0-1.24-.68,7.25,7.25,0,0,0-2-.22l-1.35-.09a.23.23,0,0,1-.13.06l-.14,0h-.63a.34.34,0,0,1-.16,0h-.16l-.69.11-.7.16a3.7,3.7,0,0,0-.59.32,2.3,2.3,0,0,0-.49.45,4.56,4.56,0,0,0-.39.54,2.72,2.72,0,0,0-.24.58q0,.32-.12.63a3.36,3.36,0,0,0-.06.63V77a.14.14,0,0,0-.05.09v.41c0,.12,0,.23,0,.34a1.46,1.46,0,0,0,0,.29,1.55,1.55,0,0,0-.05.35v1a1.47,1.47,0,0,0,0,.34V84.3a13.27,13.27,0,0,0,.25,2.78,4.88,4.88,0,0,0,.7,1.74,3.08,3.08,0,0,0,1.53.91,9.49,9.49,0,0,0,2.7.32,13.11,13.11,0,0,0,2.1-.16,6.45,6.45,0,0,0,1.6-.47,2.43,2.43,0,0,0,1-1.18,5.34,5.34,0,0,0,.36-2.13v-.36a.14.14,0,0,1-.05-.09v-.37Zm10.32-3.46V79.18a3.39,3.39,0,0,1,0-.45c0-.15,0-.3,0-.46s0-.59,0-.9l.09-.9a3.39,3.39,0,0,1,0-.45c0-.15,0-.31.07-.49a3.47,3.47,0,0,0,.06-.45c0-.15,0-.3.07-.45a10,10,0,0,1,1.55-4.17,6.4,6.4,0,0,1,3-2.36A18.87,18.87,0,0,1,219.41,67a24.89,24.89,0,0,1,4.19-.43h.9a28.13,28.13,0,0,1,6.62.67,10.34,10.34,0,0,1,4.28,2,7.76,7.76,0,0,1,2.34,4,25.18,25.18,0,0,1,.77,6.75,49.34,49.34,0,0,1-.48,7.34,22.4,22.4,0,0,1-1.37,5.32,6.08,6.08,0,0,1-3.87,3.22,24.65,24.65,0,0,1-8.07,1.06H224a2.08,2.08,0,0,0-.4,0h-1.13a2,2,0,0,0-.4,0h-.36a19.18,19.18,0,0,1-3.34-.38,17.28,17.28,0,0,1-3.11-1,6.29,6.29,0,0,1-2.54-1.89,8.89,8.89,0,0,1-1.55-3.16,14.11,14.11,0,0,1-.36-1.53,13.39,13.39,0,0,1-.18-1.58c0-.51-.06-1-.07-1.55s0-1.06,0-1.6Zm8.24-.13v1.8a20,20,0,0,0,.18,2.88,9.59,9.59,0,0,0,.49,2,2.37,2.37,0,0,0,1.45,1.26,8.71,8.71,0,0,0,3,.41,14.82,14.82,0,0,0,3.38-.32,3.25,3.25,0,0,0,1.84-1,4.91,4.91,0,0,0,.84-2,15.13,15.13,0,0,0,.29-3.22V82a4.18,4.18,0,0,1,0-.59V79.22a13.17,13.17,0,0,0-.22-2.59,6.33,6.33,0,0,0-.63-1.82,2.83,2.83,0,0,0-1.46-1,8.08,8.08,0,0,0-2.64-.36,17.65,17.65,0,0,0-3.74.32,3,3,0,0,0-1.85.94,5.68,5.68,0,0,0-.67,2.37,42.16,42.16,0,0,0-.27,4.57v.09Zm60.58-15.09v30h-7.93l.59-23h-.22l-7.48,23h-6.94l-7.66-23h-.27l.68,23H242.2v-30h12.7l5.72,18.87h.32l5.4-18.87Zm4.87,30v-30H296a41.85,41.85,0,0,1,5.88.52,16.42,16.42,0,0,1,4.3,1.24,5.48,5.48,0,0,1,2.64,3.22,18.38,18.38,0,0,1,.88,6.24v1.93a1.4,1.4,0,0,0-.05.34v.29c0,.45-.07.89-.11,1.31s-.11.84-.2,1.26-.21.83-.34,1.24a8.26,8.26,0,0,1-.52,1.19,6.12,6.12,0,0,1-1.31,1.74,5.39,5.39,0,0,1-1.8,1.06,16.48,16.48,0,0,1-2.07.51,19.92,19.92,0,0,1-2.21.3h-.58a1.37,1.37,0,0,1-.34,0h-3L292.29,89v7.7ZM292.29,82h5a11.72,11.72,0,0,0,2.07-.15,2.93,2.93,0,0,0,1.21-.48,1.88,1.88,0,0,0,.57-1,7.71,7.71,0,0,0,.2-1.91V78a12.22,12.22,0,0,0-.16-2.16,5.15,5.15,0,0,0-.43-1.44,1.73,1.73,0,0,0-1.1-.81,7.63,7.63,0,0,0-2.27-.27l-5.14-.09Zm28.65-15.4V89.76h12.61v6.89H312.88v-30Zm23.47,0v30h-8.07v-30Zm22.7,24.86H356.34l-1.44,5.18h-8.38l9-30h12.21l9.14,30h-8.2Zm-1.58-5.81L361.75,72.6l-3.7,13.06Zm43.47-19v30H395.35l-8.47-23.1h-.36l.36,23.1H379v-30h13.56L401,89.45h.31L401,66.61Zm22.34,18.68h8v.91c0,1,0,1.89-.11,2.77a24.9,24.9,0,0,1-.34,2.53,5,5,0,0,1-1,2.24,7.33,7.33,0,0,1-2.16,1.79,7.84,7.84,0,0,1-1.49.72,9.38,9.38,0,0,1-1.58.4l-.81.09-.81.09a8,8,0,0,0-.86,0,7.32,7.32,0,0,1-.81,0h-3.37a1.61,1.61,0,0,0-.39,0h-1.28a2.18,2.18,0,0,0-.43,0H421.7a11.18,11.18,0,0,1-4.8-1.37,5.76,5.76,0,0,1-2.5-3,21,21,0,0,1-1.08-4.13,33.47,33.47,0,0,1-.4-4.72l-.05-4a23.49,23.49,0,0,1,.75-6.43,8.53,8.53,0,0,1,2.23-4A9.66,9.66,0,0,1,420,67.17a25.58,25.58,0,0,1,6.42-.7l2.47-.09a.53.53,0,0,0,.3.09h1a20,20,0,0,1,2.32.23,13.69,13.69,0,0,1,2.23.54,5.17,5.17,0,0,1,1.94,1.05,7.23,7.23,0,0,1,1.48,1.82,5.7,5.7,0,0,1,.52,1.12,8.94,8.94,0,0,1,.34,1.21l.09.62c0,.21.06.4.09.58s.05.42.07.63,0,.42,0,.63v.9a.39.39,0,0,0,0,.18v1.35h-8.1a6.62,6.62,0,0,0-.23-1.85,3.07,3.07,0,0,0-.63-1.21,2.79,2.79,0,0,0-1.24-.68,7.25,7.25,0,0,0-2-.22l-1.35-.09a.23.23,0,0,1-.13.06l-.14,0h-.63a.34.34,0,0,1-.16,0h-.15l-.7.11-.7.16a3.7,3.7,0,0,0-.59.32,2.3,2.3,0,0,0-.49.45,3.56,3.56,0,0,0-.38.54,2.31,2.31,0,0,0-.25.58q0,.32-.12.63a3.36,3.36,0,0,0-.06.63V77a.14.14,0,0,0-.05.09v.41c0,.12,0,.23,0,.34a1.46,1.46,0,0,0,0,.29,1.55,1.55,0,0,0,0,.35v1a1.42,1.42,0,0,0,0,.34V84.3a13.35,13.35,0,0,0,.24,2.78,4.88,4.88,0,0,0,.7,1.74,3.08,3.08,0,0,0,1.53.91,9.61,9.61,0,0,0,2.71.32,13,13,0,0,0,2.09-.16,6.45,6.45,0,0,0,1.6-.47,2.38,2.38,0,0,0,1-1.18,5.34,5.34,0,0,0,.36-2.13v-.36a.14.14,0,0,1-.05-.09v-.37Zm19.33-12.06v5.41h12.79v5.58H450.67V90h14v6.62h-22v-30h21.76v6.62Z"/><path id="path10" class="cls-1" d="M195.72,120.18h13.55l0,.91.09,4.82a22.79,22.79,0,0,1-.34,4.09,18.3,18.3,0,0,1-1,3.52,5.06,5.06,0,0,1-2.27,2.56,9.79,9.79,0,0,1-4.17,1.09l-1.42.06-1.42.07h-.72a5.81,5.81,0,0,0-.72,0h-1.44a33.68,33.68,0,0,1-6.15-.5,14.13,14.13,0,0,1-4.43-1.53,6.19,6.19,0,0,1-2.68-3.54,19.69,19.69,0,0,1-.88-6.46v-1.53a3.27,3.27,0,0,1,0-.54v-4.57a1.4,1.4,0,0,1,0-.34v-.63c0-.66.09-1.31.18-2s.21-1.29.36-2a7.29,7.29,0,0,1,.7-1.81,9.14,9.14,0,0,1,1.19-1.69,7.41,7.41,0,0,1,1.71-1.47,8.21,8.21,0,0,1,2-.9,14.85,14.85,0,0,1,2.23-.56,16.08,16.08,0,0,1,2.27-.25H193a2.28,2.28,0,0,0,.45,0h1.31a2.3,2.3,0,0,0,.45,0h.86a40.3,40.3,0,0,1,5.29.32,20.09,20.09,0,0,1,4.12.94,4.78,4.78,0,0,1,2.7,2.69,15,15,0,0,1,1.08,5.56l-8.1-.09a4.88,4.88,0,0,0-.5-1.42,2.05,2.05,0,0,0-.81-.84,4.46,4.46,0,0,0-1.15-.36,8.49,8.49,0,0,0-1.6-.13l-1.35-.09a.75.75,0,0,1-.34.09h-.56a.34.34,0,0,1-.16,0h-.15l-.86.09a7.62,7.62,0,0,0-.81.14,3.35,3.35,0,0,0-.77.27,3.28,3.28,0,0,0-.67.45,3,3,0,0,0-.66.68,2.77,2.77,0,0,0-.38.85c-.09.3-.16.61-.22.92a5.23,5.23,0,0,0-.09,1v2.3a1.4,1.4,0,0,0-.05.34v3.31c0,.39,0,.79.05,1.19l.09,1.24a6.79,6.79,0,0,0,.49,2.37,2.54,2.54,0,0,0,1.08,1.23,6.91,6.91,0,0,0,1.67.5,12.93,12.93,0,0,0,2.3.18,13.42,13.42,0,0,0,2.32-.18,9,9,0,0,0,1.78-.5,2.3,2.3,0,0,0,1.14-1.23,5.81,5.81,0,0,0,.39-2.32v-.82h-5.63Zm17.38,17v-30h15.14a24.56,24.56,0,0,1,4.93.59,9,9,0,0,1,3.31,1.44,5.78,5.78,0,0,1,1.85,2.93,16.73,16.73,0,0,1,.63,5,22.15,22.15,0,0,1-.2,3.06,13.62,13.62,0,0,1-.57,2.43,3.44,3.44,0,0,1-1.57,1.78,10.71,10.71,0,0,1-3.34,1.19v.23a8.38,8.38,0,0,1,2.41.56,4.77,4.77,0,0,1,2.71,3,8.3,8.3,0,0,1,.33,2.43v5.41h-8.19v-4a6.3,6.3,0,0,0-.18-1.56,4.11,4.11,0,0,0-.55-1.24,1.92,1.92,0,0,0-1-.81,4.47,4.47,0,0,0-1.66-.27l-6-.09v8Zm8.07-14.82h6.39a.37.37,0,0,0,.16,0h.16a3.88,3.88,0,0,0,1.53-.25,1.45,1.45,0,0,0,.81-.74,5.27,5.27,0,0,0,.36-1.24,9.68,9.68,0,0,0,.14-1.73,11.58,11.58,0,0,0-.14-1.89,6.31,6.31,0,0,0-.36-1.36,1.78,1.78,0,0,0-1-.76,6.23,6.23,0,0,0-2.05-.27l-6-.09Zm40-15.23h8.06v19.6a.84.84,0,0,0,0,.27v.81a.79.79,0,0,0-.05.24v.25a.39.39,0,0,0,0,.18v.36a.14.14,0,0,0-.05.09v.45a.39.39,0,0,0,0,.18v.54a.41.41,0,0,0,0,.18v.18a8.15,8.15,0,0,1-1.33,3.68,5.72,5.72,0,0,1-2.68,2.05,19.69,19.69,0,0,1-3.46.87,22.84,22.84,0,0,1-3.74.3h-1.08a44.7,44.7,0,0,1-5.77-.34,17.71,17.71,0,0,1-4.28-1.06,5.05,5.05,0,0,1-2.63-3,17.24,17.24,0,0,1-.88-6.1V107.12h8.06v19.6a6.2,6.2,0,0,0,.32,2.2,1.84,1.84,0,0,0,.9,1.08,6.26,6.26,0,0,0,1.53.41,13.76,13.76,0,0,0,2,.13,18.51,18.51,0,0,0,2.43-.13,4.67,4.67,0,0,0,1.57-.45,1.78,1.78,0,0,0,.93-1.17,8.3,8.3,0,0,0,.29-2.43Zm12.93,30v-30h11.76a41.84,41.84,0,0,1,5.87.52,17,17,0,0,1,4.31,1.24,5.47,5.47,0,0,1,2.63,3.22,18.17,18.17,0,0,1,.88,6.24v1.93a1.47,1.47,0,0,0-.05.34v.3c0,.45-.06.88-.11,1.3a11,11,0,0,1-.2,1.26,10.31,10.31,0,0,1-.34,1.24,7.38,7.38,0,0,1-.52,1.2,6.23,6.23,0,0,1-1.3,1.73,5.27,5.27,0,0,1-1.81,1.06,18.41,18.41,0,0,1-2.07.52c-.72.13-1.45.23-2.2.29h-.59a1.37,1.37,0,0,1-.34,0h-3l-4.82-.09v7.71Zm8.06-14.64h5.05a11.59,11.59,0,0,0,2.07-.16,2.93,2.93,0,0,0,1.21-.47,1.82,1.82,0,0,0,.57-1,7.65,7.65,0,0,0,.2-1.91v-.45a12.22,12.22,0,0,0-.16-2.16,4.82,4.82,0,0,0-.43-1.45,1.73,1.73,0,0,0-1.1-.81,7.59,7.59,0,0,0-2.27-.27l-5.14-.09Zm19.64-.18v-2.66c0-.15,0-.3,0-.45a3.4,3.4,0,0,0,0-.45c0-.3,0-.6,0-.9l.09-.9c0-.15,0-.3,0-.45s0-.32.07-.5.05-.3.07-.45a3.5,3.5,0,0,1,.07-.45,9.92,9.92,0,0,1,1.55-4.17,6.46,6.46,0,0,1,3-2.36,19.22,19.22,0,0,1,3.87-1.15,25,25,0,0,1,4.19-.43h.9a28.17,28.17,0,0,1,6.63.68,10.4,10.4,0,0,1,4.28,2,7.81,7.81,0,0,1,2.34,4,25.22,25.22,0,0,1,.76,6.75,49.6,49.6,0,0,1-.47,7.35,22.93,22.93,0,0,1-1.37,5.31,6.07,6.07,0,0,1-3.88,3.22,24.62,24.62,0,0,1-8.06,1.06h-.72a2.1,2.1,0,0,0-.41,0h-1.12a2.17,2.17,0,0,0-.41,0h-.36a19.18,19.18,0,0,1-3.33-.38,17,17,0,0,1-3.11-1,6.22,6.22,0,0,1-2.54-1.89,8.74,8.74,0,0,1-1.56-3.16,14.11,14.11,0,0,1-.36-1.53,13.22,13.22,0,0,1-.18-1.57c0-.51,0-1-.07-1.56s0-1.06,0-1.6Zm8.24-.14V124a20.1,20.1,0,0,0,.18,2.89,9.44,9.44,0,0,0,.5,2,2.35,2.35,0,0,0,1.44,1.26,8.71,8.71,0,0,0,3,.41,14.76,14.76,0,0,0,3.38-.32,3.29,3.29,0,0,0,1.85-1,4.78,4.78,0,0,0,.83-2,14.44,14.44,0,0,0,.3-3.22v-1.62a4,4,0,0,1,0-.58v-2.17a12.4,12.4,0,0,0-.23-2.59,6.33,6.33,0,0,0-.63-1.82,2.79,2.79,0,0,0-1.46-1,8,8,0,0,0-2.63-.36,17.58,17.58,0,0,0-3.74.32,3,3,0,0,0-1.85.94,5.65,5.65,0,0,0-.68,2.37,42.33,42.33,0,0,0-.27,4.57v.09ZM364.68,132H353.91l-1.44,5.18h-8.38l9-30h12.21l9.14,30h-8.2Zm-1.58-5.81-3.78-13.07-3.7,13.07Zm19.32,4.09v6.9h-6.48v-6.9Zm26.85-23.15-10.94,19.64v10.41h-8.07V126.76l-10.63-19.64h9.19l5.36,11.58h.27L400,107.12Zm1.44,15.23v-2.66a3.4,3.4,0,0,1,0-.45c0-.15,0-.3,0-.45,0-.3,0-.6,0-.9l.09-.9a3.4,3.4,0,0,1,0-.45c0-.15,0-.32.06-.5a3.5,3.5,0,0,0,.07-.45c0-.15,0-.3.07-.45a10.06,10.06,0,0,1,1.55-4.17,6.46,6.46,0,0,1,3-2.36,19.32,19.32,0,0,1,3.88-1.15,24.78,24.78,0,0,1,4.19-.43h.9a28.08,28.08,0,0,1,6.62.68,10.33,10.33,0,0,1,4.28,2,7.81,7.81,0,0,1,2.34,4,25.18,25.18,0,0,1,.77,6.75,49.48,49.48,0,0,1-.48,7.35,22.44,22.44,0,0,1-1.37,5.31,6.05,6.05,0,0,1-3.87,3.22,24.69,24.69,0,0,1-8.07,1.06h-.72a2,2,0,0,0-.4,0h-1.13a2.17,2.17,0,0,0-.41,0h-.36a19.18,19.18,0,0,1-3.33-.38,17,17,0,0,1-3.11-1,6.22,6.22,0,0,1-2.54-1.89,8.74,8.74,0,0,1-1.56-3.16,14.11,14.11,0,0,1-.36-1.53,13.22,13.22,0,0,1-.18-1.57q0-.76-.06-1.56c0-.52,0-1.06,0-1.6Zm8.25-.14V124a20.1,20.1,0,0,0,.18,2.89,9.49,9.49,0,0,0,.49,2,2.35,2.35,0,0,0,1.44,1.26,8.73,8.73,0,0,0,3,.41,14.72,14.72,0,0,0,3.37-.32,3.25,3.25,0,0,0,1.85-1,4.78,4.78,0,0,0,.83-2,14.44,14.44,0,0,0,.3-3.22v-1.62a4,4,0,0,1,0-.58v-2.17a13.17,13.17,0,0,0-.22-2.59,6.33,6.33,0,0,0-.63-1.82,2.82,2.82,0,0,0-1.47-1,8,8,0,0,0-2.63-.36,17.65,17.65,0,0,0-3.74.32,3,3,0,0,0-1.85.94,5.68,5.68,0,0,0-.67,2.37,42.33,42.33,0,0,0-.27,4.57v.09Zm47.34-5.67h-7.66a5.83,5.83,0,0,0-.23-1.78,1.89,1.89,0,0,0-.67-1,4.09,4.09,0,0,0-1.22-.43,9.69,9.69,0,0,0-1.84-.15l-.81-.09c0,.06-.07.09-.1.09h-.27a8.21,8.21,0,0,0-1.41.11,7,7,0,0,0-1.33.34,1.51,1.51,0,0,0-.95.76,3.23,3.23,0,0,0-.31,1.53,5.29,5.29,0,0,0,.11,1.22,2.17,2.17,0,0,0,.38.86,2,2,0,0,0,.77.52,4,4,0,0,0,1.21.24c.24,0,.48.06.7.07s.46,0,.7,0,.48.06.72.07.48,0,.72,0h.41a36.74,36.74,0,0,1,4.32.43,27.08,27.08,0,0,1,3.92.92,4.65,4.65,0,0,1,2.79,2.42,10.78,10.78,0,0,1,.95,4.9v1.64a.88.88,0,0,1-.05.29,1.83,1.83,0,0,1,0,.34c0,.11,0,.22,0,.34a10.35,10.35,0,0,1-.18,1.39,11.23,11.23,0,0,1-.36,1.35,3.84,3.84,0,0,1-.57,1.23,4.63,4.63,0,0,1-.92,1,9.7,9.7,0,0,1-1.53,1,7.84,7.84,0,0,1-1.71.65c-.6.12-1.21.22-1.83.29s-1.24.13-1.87.16h-.27a.86.86,0,0,0-.27,0h-3.55a41.92,41.92,0,0,1-5.48-.32,15.27,15.27,0,0,1-3.94-1,4.53,4.53,0,0,1-2.41-2.81,16.92,16.92,0,0,1-.79-5.68l7.66-.09a8.1,8.1,0,0,0,.14,1.57,3.4,3.4,0,0,0,.45,1.17,1.71,1.71,0,0,0,.9.69,4.2,4.2,0,0,0,1.57.25l3.47-.09a.45.45,0,0,0,.2,0H456a5.41,5.41,0,0,0,1.17-.11,6.42,6.42,0,0,0,1-.29,1.52,1.52,0,0,0,.81-.87,4.38,4.38,0,0,0,.27-1.65,3.86,3.86,0,0,0-.25-1.52,1.28,1.28,0,0,0-.74-.77,4.2,4.2,0,0,0-1.1-.34c-.44-.07-.91-.12-1.42-.15h-.32c-.27,0-.52,0-.76,0s-.48,0-.72-.06-.43,0-.66,0l-.7-.06a33.07,33.07,0,0,1-4.66-.54,16.19,16.19,0,0,1-3.53-1.08,4.35,4.35,0,0,1-2.21-2.68,15.89,15.89,0,0,1-.72-5.27,12.52,12.52,0,0,1,.43-3.49,6.91,6.91,0,0,1,1.28-2.54,5.85,5.85,0,0,1,2.27-1.63,11.89,11.89,0,0,1,3.45-.77l1.28-.07,1.33-.06c.24,0,.47,0,.68,0l.67,0a4.68,4.68,0,0,1,.66,0h.65a34.92,34.92,0,0,1,4.77.29,23.85,23.85,0,0,1,3.92.83,4.42,4.42,0,0,1,2.59,2.47,12.17,12.17,0,0,1,.88,5.1v.45a.15.15,0,0,0,0,.11v.3Zm31.35-9.42v30h-8.06V125.36H479.14v11.81h-8.07v-30h8.07v11.35h10.45V107.12Zm12.93,0v30h-8.07v-30Zm12.92,0v30h-8.06v-30Z"/></g><path id="path13" class="cls-2" d="M69.36,86.26c-11.73-8.73-22.85-12.4-34-13.32,17.7,14,29.12,31.44,36.1,51.21,13.65-37.2,37.14-66.32,69.9-87.82-26.15,6.1-50.57,20.61-71.95,49.93Z"/></g></g></svg>