<svg xmlns="http://www.-1843568812w3.org/2000/svg" version="1.1" xmlns:xlink="http://www.w3.org/1999/xlink" xmlns:svgjs="http://svgjs.com/svgjs" width="512" height="512" x="0" y="0" viewBox="0 0 480 480.007" style="enable-background:new 0 0 512 512" xml:space="preserve" class="svg u_1843568812" id="1843568812" data-icon-custom="true" data-icon-name="porta-deslizante.svg"> <g> <path d="M472.004.008h-48a8 8 0 0 0-8 8v456h-192v-10.762a27.607 27.607 0 0 0 7.816-5.422 27.916 27.916 0 0 0-7.816-44.992V365.23a27.686 27.686 0 0 0 7.816-5.421 27.915 27.915 0 0 0-7.816-44.977V277.23a27.686 27.686 0 0 0 7.816-5.421 27.915 27.915 0 0 0-7.816-44.977V189.23a27.686 27.686 0 0 0 7.816-5.421 27.915 27.915 0 0 0-7.816-44.977V101.23c9.773-4.582 16.016-14.402 16.016-25.199s-6.243-20.617-16.016-25.199V8.008a8 8 0 0 0-8-8h-48a8 8 0 0 0-8 8v40h-16v-40a8 8 0 0 0-8-8h-48a8 8 0 0 0-8 8v40h-16v-40a8 8 0 0 0-8-8h-48a8 8 0 0 0-8 8v472h480v-472a8 8 0 0 0-8-8zM220.5 436.512a11.883 11.883 0 0 1-5.984 3.238c-.829.16-1.668.246-2.512.258h-196v-24h196c.805.008 1.61.09 2.398.238a12.004 12.004 0 0 1 9.11 8.313 12.01 12.01 0 0 1-3.028 11.953zm-60.496 19.496v8h-16v-8zm-80 0v8h-16v-8zm-64-88h32v32h-32zm192 32h-32v-32h32zm-48 0h-16v-32h16zm-32 0h-32v-32h32zm-48 0h-16v-32h16zM220.5 348.512a11.883 11.883 0 0 1-5.984 3.238c-.829.16-1.668.246-2.512.258h-196v-24h196c.805.008 1.61.09 2.398.238a12.004 12.004 0 0 1 9.11 8.313 12.01 12.01 0 0 1-3.028 11.953zM16.004 280.008h32v32h-32zm192 32h-32v-32h32zm-48 0h-16v-32h16zm-32 0h-32v-32h32zm-48 0h-16v-32h16zM220.5 260.512a11.883 11.883 0 0 1-5.984 3.238c-.829.16-1.668.246-2.512.258h-196v-24h196c.805.008 1.61.09 2.398.238a12.004 12.004 0 0 1 9.11 8.313 12.01 12.01 0 0 1-3.028 11.953zM16.004 192.008h32v32h-32zm192 32h-32v-32h32zm-48 0h-16v-32h16zm-32 0h-32v-32h32zm-48 0h-16v-32h16zM220.5 172.512a11.883 11.883 0 0 1-5.984 3.238c-.829.16-1.668.246-2.512.258h-196v-24h196c.805.008 1.61.09 2.398.238a12.004 12.004 0 0 1 9.11 8.313 12.01 12.01 0 0 1-3.028 11.953zM16.004 104.008h32v32h-32zm192 32h-32v-32h32zm-48 0h-16v-32h16zm-32 0h-32v-32h32zm-48 0h-16v-32h16zm132-48h-196v-24h196c6.625 0 12 5.37 12 12 0 6.625-5.375 12-12 12zm-36-72h32v32h-32zm-80 0h32v32h-32zm-48 0v32h-32v-32zm-32 448v-8h32v8zm80 0v-8h32v8zm80 0v-8h32v8zm256 0v-448h32v448zm0 0" fill="#ffffff" data-original="#000000" class="-1843568812"></path> 
 <path d="M256.004 96.008h72v24a7.993 7.993 0 0 0 4.695 7.277 7.906 7.906 0 0 0 3.305.723 8.03 8.03 0 0 0 5.273-1.977l64-56a7.999 7.999 0 0 0 0-12.047l-64-56a7.999 7.999 0 0 0-13.273 6.023v24h-72a8 8 0 0 0-8 8v48a8 8 0 0 0 8 8zm8-48h72a8 8 0 0 0 8-8V25.605l43.848 38.403-43.848 38.398V88.008a8 8 0 0 0-8-8h-72zM314.73 454.031a8.03 8.03 0 0 0 5.274 1.977 7.92 7.92 0 0 0 3.305-.723 8 8 0 0 0 4.695-7.277v-24h72a8 8 0 0 0 8-8v-48a8 8 0 0 0-8-8h-72v-24a7.996 7.996 0 0 0-4.695-7.293 8.003 8.003 0 0 0-8.579 1.27l-64 56a7.999 7.999 0 0 0 0 12.046zm-2.726-100.426v14.403a8 8 0 0 0 8 8h72v32h-72a8 8 0 0 0-8 8v14.398l-43.848-38.398zM288.715 308.16a8.005 8.005 0 0 0 10.082-1.984l75.422-93.137a8.003 8.003 0 0 0 1.004-8.477 8.002 8.002 0 0 0-7.22-4.554h-28.8l26.399-26.344a8 8 0 0 0-5.696-13.656h-66.664a7.998 7.998 0 0 0-7.199 4.422l-20 40a7.999 7.999 0 0 0 .363 7.8 7.998 7.998 0 0 0 6.836 3.778h11.563l-12.649 19.672a8 8 0 0 0 6.703 12.328h23.153l-17.016 50.582a8.006 8.006 0 0 0 3.719 9.57zm4.8-76.152 12.65-19.672a8.002 8.002 0 0 0-6.731-12.328h-13.246l12-24h42.398l-26.344 26.344a8 8 0 0 0 5.664 13.656h31.297l-36.887 45.597 6.399-19.007a7.996 7.996 0 0 0-7.566-10.59zm0 0" fill="#ffffff" data-original="#000000" class="-1843568812"></path> 
</g> 
</svg>