<?xml version="1.0"?>
<svg xmlns="http://www.w3.org/2000/svg" height="512px" viewBox="-7 0 512 512.001" width="512px"><g><path d="m496.414062 134.445312c-2.832031-3.019531-7.578124-3.171874-10.601562-.339843l-84.273438 79.054687c-.367187-.03125-.738281-.058594-1.113281-.058594h-10.132812v-66.695312c3.503906-2.21875 5.839843-6.117188 5.839843-10.5625v-11.414062c0-6.894532-5.605468-12.5-12.5-12.5h-12.175781v-12.460938c0-3.96875-.992187-9.785156-2.3125-13.535156l-16.71875-47.523438c4.507813-1.890625 7.683594-6.347656 7.683594-11.53125v-14.378906c0-6.894531-5.605469-12.5-12.5-12.5h-72.175781c-6.890625 0-12.5 5.605469-12.5 12.5v14.378906c0 5.183594 3.175781 9.640625 7.683594 11.53125l-16.71875 47.523438c-.429688 1.226562-.824219 2.675781-1.160157 4.207031-1.164062-.09375-2.332031-.15625-3.515625-.15625-.21875 0-.4375.011719-.652344.019531l-7.511718-13.066406v-24.449219c0-6.890625-5.605469-12.5-12.5-12.5h-99.101563c-6.894531 0-12.5 5.609375-12.5 12.5v25.363281l-12.070312 20.1875c-1.515625 2.539063-2.578125 6.371094-2.578125 9.324219v67.183594c-5.929688 8.550781-9.480469 19.3125-9.480469 30.996094 0 2.886719.222656 5.683593.644531 8.382812-.164062.0625-.332031.113281-.496094.183594l-80.183593-79.847656c-2.9375-2.921875-7.683594-2.910157-10.605469.023437-2.925781 2.9375-2.914062 7.683594.023438 10.605469l82.601562 82.253906v251.441407c0 7.269531 5.925781 13.183593 13.207031 13.183593h252.292969v7.046875c0 7.269532 5.925781 13.183594 13.207031 13.183594h87.90625c7.28125 0 13.207031-5.914062 13.207031-13.183594v-101.183594c3.503907-2.21875 5.84375-6.117187 5.84375-10.5625v-11.414062c0-6.890625-5.609374-12.5-12.5-12.5h-44.339843v-59.15625c0-4.144531-3.359375-7.5-7.5-7.5-4.144531 0-7.5 3.355469-7.5 7.5v59.15625h-41.667969c-6.890625 0-12.5 5.609375-12.5 12.5v11.414062c0 4.445313 2.339844 8.34375 5.84375 10.5625v13.867188h-32.15625v-6.109375c0-6.894531-5.605469-12.5-12.5-12.5h-112.867188c-6.894531 0-12.5 5.605469-12.5 12.5v6.109375h-80.480468v-183.394531h298.824218v39.894531c0 4.144531 3.355469 7.5 7.5 7.5 4.140626 0 7.5-3.355469 7.5-7.5v-41.714844c0-1.195312-.175781-2.351562-.480468-3.460937l82.921875-77.777344c3.023437-2.832031 3.171875-7.578125.339843-10.601563zm-46.785156 362.554688h-69.644531l69.644531-69.351562zm0-90.519531-84.320312 83.964843v-27.175781l63.96875-63.699219h20.355468v6.910157zm-84.320312 35.621093v-42.527343h42.710937zm-5.839844-63.945312h96.003906v6.414062h-96.003906zm-4.53125-229.8125h20.351562v6.910156l-58.09375 57.851563h-24.300781v-2.984375zm-62.039062 40.609375v-40.609375h40.78125zm82.390624-12.53125v36.683594h-36.835937zm5.84375-49.492187v6.414062h-88.238281c-.007812-2.179688-.175781-4.320312-.496093-6.414062zm-103.199218-111.929688h67.175781v9.378906h-67.175781zm66.0625 44.640625h-64.945313l7.128907-20.261719h50.6875zm-75.945313 31.269531 5.722657-16.269531h75.496093l5.726563 16.269531c.75 2.136719 1.460937 6.296875 1.460937 8.558594v12.460938h-69.328125c-4.542968-7.894532-11.503906-14.226563-19.859375-18.023438.234375-1.140625.503907-2.207031.78125-2.996094zm-18.828125 14.074219c15.808594 0 28.675782 12.796875 28.675782 28.523437v79.59375h-26.683594l-10.421875-10.378906c-2.9375-2.921875-7.6875-2.910156-10.609375.023438-2.839844 2.855468-2.902344 7.417968-.203125 10.355468h-9.433594v-79.59375c0-15.726562 12.863281-28.523437 28.675781-28.523437zm-89.539062 100.558594c0-19.480469 13.238281-35.332031 29.515625-35.332031 6.042969 0 11.664062 2.191406 16.347656 5.9375v36.953124h-45.125c-.480469-2.390624-.738281-4.914062-.738281-7.558593zm-22.339844-50.332031c-7.207031 0-14.007812 1.957031-20.035156 5.40625v-18.109376h88.238281v16.238282c-5.066406-2.273438-10.578125-3.535156-16.351563-3.535156-9.667968 0-18.621093 3.515624-25.929687 9.457031-7.304687-5.941407-16.253906-9.457031-25.921875-9.457031zm-20.035156-47.796876c.023437-.40625.285156-1.355468.453125-1.675781l11.246093-18.8125h50.214844c4.140625 0 7.5-3.355469 7.5-7.5 0-4.140625-3.359375-7.5-7.5-7.5h-47.265625v-16.9375h94.101563v16.960938h-10.835938s0 0-.003906 0c-4.140625 0-7.496094 3.355469-7.5 7.496093 0 4.144532 3.355469 7.503907 7.5 7.503907l14.296875.003906 3.527344 6.140625c-14.304688 5.707031-24.894531 18.734375-27.074219 34.414062h-88.660156zm20.035156 62.796876c5.871094 0 11.34375 2.070312 15.945312 5.628906-5.402343 8.332031-8.605468 18.601562-8.605468 29.703125 0 2.59375.179687 5.117187.519531 7.5625h-36.636719c-.480468-2.394531-.738281-4.917969-.738281-7.5625 0-19.480469 13.238281-35.332031 29.515625-35.332031zm42.945312 256.289062v2.921875c0 6.894531 5.605469 12.5 12.5 12.5h64.433594c4.140625 0 7.5-3.355469 7.5-7.5 0-4.140625-3.359375-7.5-7.5-7.5h-61.933594v-19.03125h107.863282v19.03125h-9.929688c-4.144531 0-7.5 3.359375-7.5 7.5 0 4.144531 3.355469 7.5 7.5 7.5h12.433594c6.890625 0 12.5-5.605469 12.5-12.5v-2.921875h32.152344v50.269531h-250.5v-50.269531zm0 0" data-original="#000000" class="active-path" data-old_color="#000000" fill="#FF7011"/><path d="m230.207031 141.308594 27.441407 27.328125c1.464843 1.457031 3.378906 2.183593 5.292968 2.183593 1.925782 0 3.851563-.734374 5.316406-2.207031 2.921876-2.933593 2.910157-7.683593-.023437-10.605469l-27.441406-27.328124c-2.9375-2.921876-7.6875-2.914063-10.609375.019531-2.921875 2.9375-2.910156 7.683593.023437 10.609375zm0 0" data-original="#000000" class="active-path" data-old_color="#000000" fill="#FF7011"/><path d="m240.792969 166.699219c-2.9375-2.921875-7.6875-2.914063-10.609375.023437-2.921875 2.933594-2.910156 7.683594.023437 10.605469l27.441407 27.328125c1.464843 1.457031 3.378906 2.1875 5.292968 2.1875 1.925782 0 3.851563-.734375 5.316406-2.207031 2.921876-2.933594 2.910157-7.683594-.023437-10.605469zm0 0" data-original="#000000" class="active-path" data-old_color="#000000" fill="#FF7011"/><path d="m186.996094 311.457031c0 34.160157 27.914062 61.953125 62.226562 61.953125 34.308594 0 62.222656-27.792968 62.222656-61.953125 0-34.164062-27.914062-61.957031-62.222656-61.957031-34.3125 0-62.226562 27.792969-62.226562 61.957031zm109.449218 0c0 25.890625-21.183593 46.953125-47.222656 46.953125-26.042968 0-47.226562-21.0625-47.226562-46.953125 0-25.894531 21.183594-46.957031 47.226562-46.957031 26.039063 0 47.222656 21.066406 47.222656 46.957031zm0 0" data-original="#000000" class="active-path" data-old_color="#000000" fill="#FF7011"/><path d="m235.089844 298.824219v-5.511719c0-4.144531-3.355469-7.5-7.5-7.5-4.140625 0-7.5 3.355469-7.5 7.5v5.511719c0 4.144531 3.359375 7.5 7.5 7.5 4.144531 0 7.5-3.355469 7.5-7.5zm0 0" data-original="#000000" class="active-path" data-old_color="#000000" fill="#FF7011"/><path d="m270.851562 306.324219c4.140626 0 7.5-3.355469 7.5-7.5v-5.511719c0-4.144531-3.359374-7.5-7.5-7.5-4.144531 0-7.5 3.355469-7.5 7.5v5.511719c0 4.144531 3.355469 7.5 7.5 7.5zm0 0" data-original="#000000" class="active-path" data-old_color="#000000" fill="#FF7011"/><path d="m238.535156 323.535156c0-4.140625-3.355468-7.5-7.5-7.5-4.140625 0-7.5 3.359375-7.5 7.5 0 14.113282 11.523438 25.59375 25.6875 25.59375 14.164063 0 25.6875-11.480468 25.6875-25.59375 0-4.140625-3.355468-7.5-7.5-7.5-4.144531 0-7.5 3.359375-7.5 7.5 0 5.84375-4.792968 10.59375-10.6875 10.59375-5.894531 0-10.6875-4.75-10.6875-10.59375zm0 0" data-original="#000000" class="active-path" data-old_color="#000000" fill="#FF7011"/></g> </svg>
